<mxfile host="65bd71144e" modified="2021-02-11T21:12:05.669Z" agent="5.0 (Macintosh; Intel Mac OS X 11_2_1) AppleWebKit/537.36 (KHTML, like Gecko) Code/1.53.2 Chrome/87.0.4280.141 Electron/11.2.1 Safari/537.36" etag="siH9u0hdE3mv-GHDWPxP" version="14.2.4" type="embed" pages="4">
    <diagram id="g0vm-6yuTsdYiAMZt8ho" name="homepage">
        <mxGraphModel dx="882" dy="1976" grid="1" gridSize="10" guides="1" tooltips="1" connect="1" arrows="1" fold="1" page="1" pageScale="1" pageWidth="827" pageHeight="1169" math="0" shadow="0">
            <root>
                <mxCell id="eGUfHawenqK6GY1og8ys-0"/>
                <mxCell id="eGUfHawenqK6GY1og8ys-1" parent="eGUfHawenqK6GY1og8ys-0"/>
                <mxCell id="gQb6T4Sgg0A40pvjjhzf-0" value="app.com" style="strokeWidth=1;shadow=0;dashed=0;align=center;html=1;shape=mxgraph.mockup.containers.window;align=left;verticalAlign=top;spacingLeft=8;strokeColor2=#008cff;strokeColor3=#c4c4c4;fontColor=#666666;mainText=;fontSize=17;labelBackgroundColor=none;" parent="eGUfHawenqK6GY1og8ys-1" vertex="1">
                    <mxGeometry x="120" y="-1080" width="560" height="1040" as="geometry"/>
                </mxCell>
                <mxCell id="3rr8l3T8dAuXRlsgoLsf-1" value="" style="html=1;shadow=0;dashed=0;strokeColor=none;fontSize=16;fontColor=#181819;align=left;spacing=15;fillColor=#FFFFFF;" parent="eGUfHawenqK6GY1og8ys-1" vertex="1">
                    <mxGeometry x="120" y="-1050" width="560" height="60" as="geometry"/>
                </mxCell>
                <mxCell id="3rr8l3T8dAuXRlsgoLsf-7" value="Get Started" style="html=1;shadow=0;dashed=0;shape=mxgraph.bootstrap.rrect;rSize=5;fontSize=14;fontColor=#33A64C;strokeColor=#33A64C;fillColor=none;" parent="3rr8l3T8dAuXRlsgoLsf-1" vertex="1">
                    <mxGeometry x="1" width="92" height="40" relative="1" as="geometry">
                        <mxPoint x="-312" y="70" as="offset"/>
                    </mxGeometry>
                </mxCell>
                <mxCell id="3rr8l3T8dAuXRlsgoLsf-10" value="&lt;b&gt;&lt;font style=&quot;font-size: 16px&quot;&gt;TaskApp&lt;/font&gt;&lt;/b&gt;" style="text;html=1;strokeColor=none;fillColor=none;align=center;verticalAlign=middle;whiteSpace=wrap;rounded=0;shadow=1;" parent="3rr8l3T8dAuXRlsgoLsf-1" vertex="1">
                    <mxGeometry x="216" y="20" width="155" height="20" as="geometry"/>
                </mxCell>
                <mxCell id="3rr8l3T8dAuXRlsgoLsf-11" value="" style="rounded=0;whiteSpace=wrap;html=1;shadow=0;strokeColor=none;fillColor=#FFFFFF;" parent="eGUfHawenqK6GY1og8ys-1" vertex="1">
                    <mxGeometry x="120" y="-990" width="560" height="190" as="geometry"/>
                </mxCell>
                <mxCell id="hCMDOnUvyhHi8FCB81bX-3" value="" style="outlineConnect=0;fontColor=#232F3E;gradientColor=none;fillColor=#D05C17;strokeColor=none;dashed=0;verticalLabelPosition=bottom;verticalAlign=top;align=center;html=1;fontSize=12;fontStyle=0;aspect=fixed;pointerEvents=1;shape=mxgraph.aws4.container_registry_image;shadow=0;" parent="eGUfHawenqK6GY1og8ys-1" vertex="1">
                    <mxGeometry x="492.5" y="-547.5" width="78" height="78" as="geometry"/>
                </mxCell>
                <mxCell id="hCMDOnUvyhHi8FCB81bX-4" value="&lt;font style=&quot;font-size: 16px&quot;&gt;AppInfo&lt;/font&gt;" style="text;html=1;strokeColor=none;fillColor=none;align=center;verticalAlign=middle;whiteSpace=wrap;rounded=0;shadow=0;" parent="eGUfHawenqK6GY1og8ys-1" vertex="1">
                    <mxGeometry x="170" y="-550" width="290" height="83" as="geometry"/>
                </mxCell>
                <mxCell id="wW9ie-ZnIWAqNBLtU3ah-14" style="edgeStyle=orthogonalEdgeStyle;rounded=0;orthogonalLoop=1;jettySize=auto;html=1;entryX=0.5;entryY=1;entryDx=0;entryDy=0;fontColor=#3333FF;" parent="eGUfHawenqK6GY1og8ys-1" source="F4IBbZG-Xm6b_5rXvs8L-4" target="wW9ie-ZnIWAqNBLtU3ah-12" edge="1">
                    <mxGeometry relative="1" as="geometry"/>
                </mxCell>
                <mxCell id="F4IBbZG-Xm6b_5rXvs8L-4" value="dynamicBtn" style="html=1;shadow=0;dashed=0;shape=mxgraph.bootstrap.rrect;rSize=5;fontSize=14;fontColor=#33A64C;strokeColor=#33A64C;fillColor=none;" parent="eGUfHawenqK6GY1og8ys-1" vertex="1">
                    <mxGeometry x="354" y="-240" width="92" height="40" as="geometry"/>
                </mxCell>
                <mxCell id="wW9ie-ZnIWAqNBLtU3ah-0" value="" style="outlineConnect=0;fontColor=#232F3E;gradientColor=none;fillColor=#D05C17;strokeColor=none;dashed=0;verticalLabelPosition=bottom;verticalAlign=top;align=center;html=1;fontSize=12;fontStyle=0;aspect=fixed;pointerEvents=1;shape=mxgraph.aws4.container_registry_image;shadow=0;" parent="eGUfHawenqK6GY1og8ys-1" vertex="1">
                    <mxGeometry x="492.5" y="-400.5" width="78" height="78" as="geometry"/>
                </mxCell>
                <mxCell id="wW9ie-ZnIWAqNBLtU3ah-1" value="&lt;font style=&quot;font-size: 16px&quot;&gt;AppInfo&lt;/font&gt;" style="text;html=1;strokeColor=none;fillColor=none;align=center;verticalAlign=middle;whiteSpace=wrap;rounded=0;shadow=0;" parent="eGUfHawenqK6GY1og8ys-1" vertex="1">
                    <mxGeometry x="170" y="-403" width="290" height="83" as="geometry"/>
                </mxCell>
                <mxCell id="wW9ie-ZnIWAqNBLtU3ah-2" value="" style="outlineConnect=0;fontColor=#232F3E;gradientColor=none;fillColor=#D05C17;strokeColor=none;dashed=0;verticalLabelPosition=bottom;verticalAlign=top;align=center;html=1;fontSize=12;fontStyle=0;aspect=fixed;pointerEvents=1;shape=mxgraph.aws4.container_registry_image;shadow=0;" parent="eGUfHawenqK6GY1og8ys-1" vertex="1">
                    <mxGeometry x="492.5" y="-697.5" width="78" height="78" as="geometry"/>
                </mxCell>
                <mxCell id="wW9ie-ZnIWAqNBLtU3ah-3" value="&lt;font style=&quot;font-size: 16px&quot;&gt;AppInfo&lt;/font&gt;" style="text;html=1;strokeColor=none;fillColor=none;align=center;verticalAlign=middle;whiteSpace=wrap;rounded=0;shadow=0;" parent="eGUfHawenqK6GY1og8ys-1" vertex="1">
                    <mxGeometry x="170" y="-700" width="290" height="83" as="geometry"/>
                </mxCell>
                <mxCell id="WlIyFfo8gMb8JdZy9Y6k-3" style="edgeStyle=orthogonalEdgeStyle;rounded=0;orthogonalLoop=1;jettySize=auto;html=1;entryX=0.5;entryY=1;entryDx=0;entryDy=0;fontColor=#3333FF;" parent="eGUfHawenqK6GY1og8ys-1" source="wW9ie-ZnIWAqNBLtU3ah-4" target="WlIyFfo8gMb8JdZy9Y6k-2" edge="1">
                    <mxGeometry relative="1" as="geometry"/>
                </mxCell>
                <mxCell id="wW9ie-ZnIWAqNBLtU3ah-4" value="Top" style="ellipse;whiteSpace=wrap;html=1;aspect=fixed;" parent="eGUfHawenqK6GY1og8ys-1" vertex="1">
                    <mxGeometry x="630" y="-90" width="30" height="30" as="geometry"/>
                </mxCell>
                <mxCell id="wW9ie-ZnIWAqNBLtU3ah-8" value="" style="line;strokeWidth=2;html=1;" parent="eGUfHawenqK6GY1og8ys-1" vertex="1">
                    <mxGeometry x="120" y="-130" width="560" height="10" as="geometry"/>
                </mxCell>
                <mxCell id="wW9ie-ZnIWAqNBLtU3ah-9" value="&lt;b&gt;&lt;font style=&quot;font-size: 16px&quot;&gt;TaskApp&lt;/font&gt;&lt;/b&gt;" style="text;html=1;strokeColor=none;fillColor=none;align=center;verticalAlign=middle;whiteSpace=wrap;rounded=0;shadow=1;" parent="eGUfHawenqK6GY1og8ys-1" vertex="1">
                    <mxGeometry x="322.5" y="-100" width="155" height="20" as="geometry"/>
                </mxCell>
                <mxCell id="wW9ie-ZnIWAqNBLtU3ah-13" style="edgeStyle=orthogonalEdgeStyle;rounded=0;orthogonalLoop=1;jettySize=auto;html=1;entryX=0.5;entryY=0;entryDx=0;entryDy=0;fontColor=#3333FF;" parent="eGUfHawenqK6GY1og8ys-1" source="wW9ie-ZnIWAqNBLtU3ah-10" target="wW9ie-ZnIWAqNBLtU3ah-12" edge="1">
                    <mxGeometry relative="1" as="geometry"/>
                </mxCell>
                <mxCell id="wW9ie-ZnIWAqNBLtU3ah-10" value="dynamicBtn" style="html=1;shadow=0;dashed=0;shape=mxgraph.bootstrap.rrect;rSize=5;fontSize=14;fontColor=#33A64C;strokeColor=#33A64C;fillColor=none;" parent="eGUfHawenqK6GY1og8ys-1" vertex="1">
                    <mxGeometry x="368" y="-930" width="92" height="40" as="geometry"/>
                </mxCell>
                <mxCell id="WlIyFfo8gMb8JdZy9Y6k-1" style="edgeStyle=orthogonalEdgeStyle;rounded=0;orthogonalLoop=1;jettySize=auto;html=1;entryX=0.5;entryY=0;entryDx=0;entryDy=0;fontColor=#3333FF;" parent="eGUfHawenqK6GY1og8ys-1" source="wW9ie-ZnIWAqNBLtU3ah-11" target="WlIyFfo8gMb8JdZy9Y6k-0" edge="1">
                    <mxGeometry relative="1" as="geometry"/>
                </mxCell>
                <mxCell id="wW9ie-ZnIWAqNBLtU3ah-11" value="ScrollDown" style="html=1;shadow=0;dashed=0;shape=mxgraph.bootstrap.rrect;rSize=5;fontSize=14;fillColor=none;strokeColor=#3333FF;fontColor=#3333FF;" parent="eGUfHawenqK6GY1og8ys-1" vertex="1">
                    <mxGeometry x="368" y="-870" width="92" height="40" as="geometry"/>
                </mxCell>
                <mxCell id="wW9ie-ZnIWAqNBLtU3ah-12" value="&lt;font color=&quot;#000000&quot;&gt;link zu login/signup&lt;br&gt;oder&lt;br&gt;Desk-Board&lt;br&gt;(abhÃ¤ngig von status)&lt;br&gt;&lt;/font&gt;" style="rounded=0;whiteSpace=wrap;html=1;strokeColor=#3333FF;fontColor=#3333FF;" parent="eGUfHawenqK6GY1og8ys-1" vertex="1">
                    <mxGeometry x="710" y="-800" width="100" height="100" as="geometry"/>
                </mxCell>
                <mxCell id="WlIyFfo8gMb8JdZy9Y6k-0" value="&lt;font color=&quot;#000000&quot;&gt;Scroll zu info&lt;br&gt;&lt;/font&gt;" style="rounded=0;whiteSpace=wrap;html=1;strokeColor=#3333FF;fontColor=#3333FF;" parent="eGUfHawenqK6GY1og8ys-1" vertex="1">
                    <mxGeometry x="10" y="-800" width="100" height="40" as="geometry"/>
                </mxCell>
                <mxCell id="WlIyFfo8gMb8JdZy9Y6k-2" value="&lt;font color=&quot;#000000&quot;&gt;TopScroll&lt;br&gt;&lt;/font&gt;" style="rounded=0;whiteSpace=wrap;html=1;strokeColor=#3333FF;fontColor=#3333FF;" parent="eGUfHawenqK6GY1og8ys-1" vertex="1">
                    <mxGeometry x="710" y="-160" width="100" height="40" as="geometry"/>
                </mxCell>
            </root>
        </mxGraphModel>
    </diagram>
    <diagram id="CgDbBgJyEWBTp9LVYYW_" name="SignIn/SignUp">
        &#xa;
        <mxGraphModel dx="882" dy="807" grid="1" gridSize="10" guides="1" tooltips="1" connect="1" arrows="1" fold="1" page="1" pageScale="1" pageWidth="827" pageHeight="1169" math="0" shadow="0">
            &#xa;
            <root>
                &#xa;
                <mxCell id="0"/>
                &#xa;
                <mxCell id="1" parent="0"/>
                &#xa;
                <mxCell id="JFTWInnW5SE5gUXBtOun-5" value="&lt;font style=&quot;font-size: 15px&quot;&gt;Wenn der User nicht angemeldet ist - immer Redirect auf /login&lt;/font&gt;" style="text;html=1;strokeColor=none;fillColor=none;align=center;verticalAlign=middle;whiteSpace=wrap;rounded=0;" parent="1" vertex="1">
                    &#xa;
                    <mxGeometry x="40" y="80" width="430" height="20" as="geometry"/>
                    &#xa;
                </mxCell>
                &#xa;
                <mxCell id="JFTWInnW5SE5gUXBtOun-6" value="app.com/login" style="strokeWidth=1;shadow=0;dashed=0;align=center;html=1;shape=mxgraph.mockup.containers.window;align=left;verticalAlign=top;spacingLeft=8;strokeColor2=#008cff;strokeColor3=#c4c4c4;fontColor=#666666;mainText=;fontSize=17;labelBackgroundColor=none;" parent="1" vertex="1">
                    &#xa;
                    <mxGeometry x="189" y="160" width="560" height="400" as="geometry"/>
                    &#xa;
                </mxCell>
                &#xa;
                <mxCell id="JFTWInnW5SE5gUXBtOun-7" value="Email" style="fillColor=none;strokeColor=none;align=left;fontSize=14;fontColor=#CCCCCC;" parent="1" vertex="1">
                    &#xa;
                    <mxGeometry width="260" height="30" relative="1" as="geometry">
                        &#xa;
                        <mxPoint x="333.5" y="330" as="offset"/>
                        &#xa;
                    </mxGeometry>
                    &#xa;
                </mxCell>
                &#xa;
                <mxCell id="JFTWInnW5SE5gUXBtOun-10" value="Password" style="fillColor=none;strokeColor=none;align=left;fontSize=14;fontColor=#CCCCCC;" parent="1" vertex="1">
                    &#xa;
                    <mxGeometry width="260" height="30" relative="1" as="geometry">
                        &#xa;
                        <mxPoint x="334.5" y="380" as="offset"/>
                        &#xa;
                    </mxGeometry>
                    &#xa;
                </mxCell>
                &#xa;
                <mxCell id="JFTWInnW5SE5gUXBtOun-17" value="" style="endArrow=none;html=1;fontColor=#CCCCCC;" parent="1" source="JFTWInnW5SE5gUXBtOun-6" edge="1">
                    &#xa;
                    <mxGeometry width="50" height="50" relative="1" as="geometry">
                        &#xa;
                        <mxPoint x="699" y="450" as="sourcePoint"/>
                        &#xa;
                        <mxPoint x="749" y="400" as="targetPoint"/>
                        &#xa;
                    </mxGeometry>
                    &#xa;
                </mxCell>
                &#xa;
                <mxCell id="JFTWInnW5SE5gUXBtOun-19" value="app.com/login" style="strokeWidth=1;shadow=0;dashed=0;align=center;html=1;shape=mxgraph.mockup.containers.window;align=left;verticalAlign=top;spacingLeft=8;strokeColor2=#008cff;strokeColor3=#c4c4c4;fontColor=#666666;mainText=;fontSize=17;labelBackgroundColor=none;" parent="1" vertex="1">
                    &#xa;
                    <mxGeometry x="188" y="600" width="560" height="470" as="geometry"/>
                    &#xa;
                </mxCell>
                &#xa;
                <mxCell id="JFTWInnW5SE5gUXBtOun-20" value="Email" style="fillColor=none;strokeColor=none;align=left;fontSize=14;fontColor=#CCCCCC;" parent="1" vertex="1">
                    &#xa;
                    <mxGeometry x="333" y="830" width="260" height="30" as="geometry"/>
                    &#xa;
                </mxCell>
                &#xa;
                <mxCell id="JFTWInnW5SE5gUXBtOun-21" value="" style="html=1;shadow=0;dashed=0;shape=mxgraph.bootstrap.rrect;rSize=5;fillColor=none;strokeColor=#999999;align=left;spacing=15;fontSize=14;fontColor=#6C767D;" parent="1" vertex="1">
                    &#xa;
                    <mxGeometry x="333" y="785" width="260" height="30" as="geometry"/>
                    &#xa;
                </mxCell>
                &#xa;
                <mxCell id="JFTWInnW5SE5gUXBtOun-22" value="Password" style="fillColor=none;strokeColor=none;align=left;fontSize=14;fontColor=#CCCCCC;" parent="1" vertex="1">
                    &#xa;
                    <mxGeometry x="333" y="880" width="260" height="30" as="geometry"/>
                    &#xa;
                </mxCell>
                &#xa;
                <mxCell id="JFTWInnW5SE5gUXBtOun-27" value="" style="endArrow=none;html=1;fontColor=#CCCCCC;" parent="1" source="JFTWInnW5SE5gUXBtOun-19" edge="1">
                    &#xa;
                    <mxGeometry width="50" height="50" relative="1" as="geometry">
                        &#xa;
                        <mxPoint x="698" y="890" as="sourcePoint"/>
                        &#xa;
                        <mxPoint x="748" y="840" as="targetPoint"/>
                        &#xa;
                    </mxGeometry>
                    &#xa;
                </mxCell>
                &#xa;
                <mxCell id="gjA2qnnAQgLxanmzsw6a-2" value="&lt;h1 style=&quot;font-size: 15px;&quot;&gt;&lt;font face=&quot;Tahoma&quot; color=&quot;#000000&quot; style=&quot;font-size: 15px;&quot;&gt;&lt;span style=&quot;font-size: 15px;&quot;&gt;Heading&lt;/span&gt;&lt;/font&gt;&lt;/h1&gt;" style="text;html=1;strokeColor=none;fillColor=none;align=center;verticalAlign=middle;whiteSpace=wrap;rounded=0;fontColor=#CCCCCC;fontStyle=0;fontSize=15;" parent="1" vertex="1">
                    &#xa;
                    <mxGeometry x="418" y="629" width="100" height="40" as="geometry"/>
                    &#xa;
                </mxCell>
                &#xa;
                <mxCell id="N7wRPYEgobdHKlkidUgb-1" value="&lt;h1 style=&quot;font-size: 15px;&quot;&gt;&lt;font face=&quot;Tahoma&quot; color=&quot;#000000&quot; style=&quot;font-size: 15px;&quot;&gt;&lt;span style=&quot;font-size: 15px;&quot;&gt;Heading&lt;/span&gt;&lt;/font&gt;&lt;/h1&gt;" style="text;html=1;strokeColor=none;fillColor=none;align=center;verticalAlign=middle;whiteSpace=wrap;rounded=0;fontColor=#CCCCCC;fontStyle=0;fontSize=15;" parent="1" vertex="1">
                    &#xa;
                    <mxGeometry x="419" y="184" width="100" height="40" as="geometry"/>
                    &#xa;
                </mxCell>
                &#xa;
                <mxCell id="pGC2VCrd8ZXMW8WA--qz-1" value="Desk-Board" style="rounded=0;whiteSpace=wrap;html=1;strokeColor=#007FFF;strokeWidth=2;fontSize=15;" parent="1" vertex="1">
                    &#xa;
                    <mxGeometry x="78" y="560" width="100" height="30" as="geometry"/>
                    &#xa;
                </mxCell>
                &#xa;
                <mxCell id="Uja4rC3mUD-K78tAFcLf-1" value="" style="whiteSpace=wrap;html=1;aspect=fixed;shadow=1;" parent="1" vertex="1">
                    &#xa;
                    <mxGeometry x="318" y="220" width="300" height="300" as="geometry"/>
                    &#xa;
                </mxCell>
                &#xa;
                <mxCell id="JFTWInnW5SE5gUXBtOun-8" value="" style="html=1;shadow=0;dashed=0;shape=mxgraph.bootstrap.rrect;rSize=5;fillColor=none;strokeColor=#999999;align=left;spacing=15;fontSize=14;fontColor=#6C767D;" parent="1" vertex="1">
                    &#xa;
                    <mxGeometry width="260" height="30" relative="1" as="geometry">
                        &#xa;
                        <mxPoint x="333.5" y="330" as="offset"/>
                        &#xa;
                    </mxGeometry>
                    &#xa;
                </mxCell>
                &#xa;
                <mxCell id="JFTWInnW5SE5gUXBtOun-11" value="" style="html=1;shadow=0;dashed=0;shape=mxgraph.bootstrap.rrect;rSize=5;fillColor=none;strokeColor=#999999;align=left;spacing=15;fontSize=14;fontColor=#6C767D;" parent="1" vertex="1">
                    &#xa;
                    <mxGeometry width="260" height="30" relative="1" as="geometry">
                        &#xa;
                        <mxPoint x="334.5" y="380" as="offset"/>
                        &#xa;
                    </mxGeometry>
                    &#xa;
                </mxCell>
                &#xa;
                <mxCell id="JFTWInnW5SE5gUXBtOun-13" value="Sign In" style="html=1;shadow=0;dashed=0;shape=mxgraph.bootstrap.rrect;rSize=5;fillColor=#0085FC;strokeColor=none;align=center;fontSize=14;fontColor=#FFFFFF;" parent="1" vertex="1">
                    &#xa;
                    <mxGeometry width="60" height="20" relative="1" as="geometry">
                        &#xa;
                        <mxPoint x="334.5" y="430" as="offset"/>
                        &#xa;
                    </mxGeometry>
                    &#xa;
                </mxCell>
                &#xa;
                <mxCell id="JFTWInnW5SE5gUXBtOun-15" value="&lt;font style=&quot;font-size: 30px&quot; color=&quot;#007fff&quot;&gt;Sign In&lt;/font&gt;" style="text;html=1;strokeColor=none;fillColor=none;align=center;verticalAlign=middle;whiteSpace=wrap;rounded=0;fontColor=#CCCCCC;" parent="1" vertex="1">
                    &#xa;
                    <mxGeometry x="333" y="240" width="100" height="70" as="geometry"/>
                    &#xa;
                </mxCell>
                &#xa;
                <mxCell id="JFTWInnW5SE5gUXBtOun-16" value="&lt;font style=&quot;font-size: 30px&quot; color=&quot;#cfcfcf&quot;&gt;Sign Up&lt;/font&gt;" style="text;html=1;strokeColor=none;fillColor=none;align=center;verticalAlign=middle;whiteSpace=wrap;rounded=0;fontColor=#CCCCCC;" parent="1" vertex="1">
                    &#xa;
                    <mxGeometry x="498" y="240" width="110" height="70" as="geometry"/>
                    &#xa;
                </mxCell>
                &#xa;
                <mxCell id="JFTWInnW5SE5gUXBtOun-31" value="&lt;font color=&quot;#ff3333&quot;&gt;Validation Error&lt;/font&gt;" style="text;html=1;strokeColor=none;fillColor=none;align=center;verticalAlign=middle;whiteSpace=wrap;rounded=0;fontColor=#CCCCCC;" parent="1" vertex="1">
                    &#xa;
                    <mxGeometry x="506.5" y="310" width="85" height="20" as="geometry"/>
                    &#xa;
                </mxCell>
                &#xa;
                <mxCell id="pGC2VCrd8ZXMW8WA--qz-2" style="edgeStyle=orthogonalEdgeStyle;rounded=0;orthogonalLoop=1;jettySize=auto;html=1;entryX=0.5;entryY=0;entryDx=0;entryDy=0;fontSize=15;exitX=0.008;exitY=0.5;exitDx=0;exitDy=0;exitPerimeter=0;" parent="1" source="JFTWInnW5SE5gUXBtOun-13" target="pGC2VCrd8ZXMW8WA--qz-1" edge="1">
                    &#xa;
                    <mxGeometry relative="1" as="geometry"/>
                    &#xa;
                </mxCell>
                &#xa;
                <mxCell id="Uja4rC3mUD-K78tAFcLf-6" value="" style="whiteSpace=wrap;html=1;aspect=fixed;shadow=1;" parent="1" vertex="1">
                    &#xa;
                    <mxGeometry x="318" y="680" width="300" height="300" as="geometry"/>
                    &#xa;
                </mxCell>
                &#xa;
                <mxCell id="JFTWInnW5SE5gUXBtOun-23" value="" style="html=1;shadow=0;dashed=0;shape=mxgraph.bootstrap.rrect;rSize=5;fillColor=none;strokeColor=#999999;align=left;spacing=15;fontSize=14;fontColor=#6C767D;" parent="1" vertex="1">
                    &#xa;
                    <mxGeometry x="333" y="830" width="260" height="30" as="geometry"/>
                    &#xa;
                </mxCell>
                &#xa;
                <mxCell id="JFTWInnW5SE5gUXBtOun-24" value="Sign Up" style="html=1;shadow=0;dashed=0;shape=mxgraph.bootstrap.rrect;rSize=5;fillColor=#0085FC;strokeColor=none;align=center;fontSize=14;fontColor=#FFFFFF;" parent="1" vertex="1">
                    &#xa;
                    <mxGeometry x="333" y="930" width="60" height="20" as="geometry"/>
                    &#xa;
                </mxCell>
                &#xa;
                <mxCell id="JFTWInnW5SE5gUXBtOun-25" value="&lt;font style=&quot;font-size: 30px&quot; color=&quot;#e6e6e6&quot;&gt;Sign In&lt;/font&gt;" style="text;html=1;strokeColor=none;fillColor=none;align=center;verticalAlign=middle;whiteSpace=wrap;rounded=0;fontColor=#CCCCCC;" parent="1" vertex="1">
                    &#xa;
                    <mxGeometry x="333" y="690" width="100" height="70" as="geometry"/>
                    &#xa;
                </mxCell>
                &#xa;
                <mxCell id="JFTWInnW5SE5gUXBtOun-26" value="&lt;font style=&quot;font-size: 30px&quot; color=&quot;#007fff&quot;&gt;Sign Up&lt;/font&gt;" style="text;html=1;strokeColor=none;fillColor=none;align=center;verticalAlign=middle;whiteSpace=wrap;rounded=0;fontColor=#CCCCCC;" parent="1" vertex="1">
                    &#xa;
                    <mxGeometry x="494" y="690" width="110" height="70" as="geometry"/>
                    &#xa;
                </mxCell>
                &#xa;
                <mxCell id="JFTWInnW5SE5gUXBtOun-28" value="" style="html=1;shadow=0;dashed=0;shape=mxgraph.bootstrap.rrect;rSize=5;fillColor=none;strokeColor=#999999;align=left;spacing=15;fontSize=14;fontColor=#6C767D;" parent="1" vertex="1">
                    &#xa;
                    <mxGeometry x="333" y="880" width="260" height="30" as="geometry"/>
                    &#xa;
                </mxCell>
                &#xa;
                <mxCell id="JFTWInnW5SE5gUXBtOun-29" value="Username" style="fillColor=none;strokeColor=none;align=left;fontSize=14;fontColor=#CCCCCC;" parent="1" vertex="1">
                    &#xa;
                    <mxGeometry x="333" y="790" width="260" height="30" as="geometry"/>
                    &#xa;
                </mxCell>
                &#xa;
                <mxCell id="JFTWInnW5SE5gUXBtOun-30" value="&lt;font color=&quot;#ff3333&quot;&gt;Validation Error&lt;/font&gt;" style="text;html=1;strokeColor=none;fillColor=none;align=center;verticalAlign=middle;whiteSpace=wrap;rounded=0;fontColor=#CCCCCC;" parent="1" vertex="1">
                    &#xa;
                    <mxGeometry x="503" y="770" width="90" height="20" as="geometry"/>
                    &#xa;
                </mxCell>
                &#xa;
                <mxCell id="pGC2VCrd8ZXMW8WA--qz-3" style="edgeStyle=orthogonalEdgeStyle;rounded=0;orthogonalLoop=1;jettySize=auto;html=1;entryX=0.5;entryY=1;entryDx=0;entryDy=0;fontSize=15;" parent="1" source="JFTWInnW5SE5gUXBtOun-24" target="pGC2VCrd8ZXMW8WA--qz-1" edge="1">
                    &#xa;
                    <mxGeometry relative="1" as="geometry"/>
                    &#xa;
                </mxCell>
                &#xa;
                <mxCell id="Uja4rC3mUD-K78tAFcLf-7" value="" style="html=1;shadow=0;dashed=0;shape=mxgraph.bootstrap.rrect;rSize=5;fillColor=none;strokeColor=#999999;align=left;spacing=15;fontSize=14;fontColor=#6C767D;" parent="1" vertex="1">
                    &#xa;
                    <mxGeometry x="333" y="790" width="260" height="30" as="geometry"/>
                    &#xa;
                </mxCell>
                &#xa;
                <mxCell id="Uja4rC3mUD-K78tAFcLf-8" value="Email" style="fillColor=none;strokeColor=none;align=left;fontSize=14;fontColor=#CCCCCC;" parent="1" vertex="1">
                    &#xa;
                    <mxGeometry x="333" y="830" width="260" height="30" as="geometry"/>
                    &#xa;
                </mxCell>
                &#xa;
                <mxCell id="Uja4rC3mUD-K78tAFcLf-9" value="Password" style="fillColor=none;strokeColor=none;align=left;fontSize=14;fontColor=#CCCCCC;" parent="1" vertex="1">
                    &#xa;
                    <mxGeometry x="333" y="880" width="260" height="30" as="geometry"/>
                    &#xa;
                </mxCell>
                &#xa;
                <mxCell id="Uja4rC3mUD-K78tAFcLf-10" value="Password" style="fillColor=none;strokeColor=none;align=left;fontSize=14;fontColor=#CCCCCC;" parent="1" vertex="1">
                    &#xa;
                    <mxGeometry x="338" y="380" width="250" height="30" as="geometry"/>
                    &#xa;
                </mxCell>
                &#xa;
                <mxCell id="Uja4rC3mUD-K78tAFcLf-11" value="Email" style="fillColor=none;strokeColor=none;align=left;fontSize=14;fontColor=#CCCCCC;" parent="1" vertex="1">
                    &#xa;
                    <mxGeometry x="338" y="330" width="250" height="30" as="geometry"/>
                    &#xa;
                </mxCell>
                &#xa;
                <mxCell id="acgYYKF6fTekr3X7fEWw-2" value="&lt;h1 style=&quot;font-size: 15px&quot;&gt;&lt;font color=&quot;#000000&quot; face=&quot;Tahoma&quot;&gt;/LOGIN&lt;/font&gt;&lt;/h1&gt;" style="text;html=1;strokeColor=none;fillColor=none;align=center;verticalAlign=middle;whiteSpace=wrap;rounded=0;fontColor=#CCCCCC;fontStyle=0;fontSize=15;" parent="1" vertex="1">
                    &#xa;
                    <mxGeometry x="40" y="40" width="60" height="40" as="geometry"/>
                    &#xa;
                </mxCell>
                &#xa;
                <mxCell id="acgYYKF6fTekr3X7fEWw-3" value="&lt;span style=&quot;font-size: 15px&quot;&gt;auÃer das Ziel ist die Homepage&lt;/span&gt;" style="text;html=1;strokeColor=none;fillColor=none;align=center;verticalAlign=middle;whiteSpace=wrap;rounded=0;" parent="1" vertex="1">
                    &#xa;
                    <mxGeometry x="40" y="100" width="430" height="20" as="geometry"/>
                    &#xa;
                </mxCell>
                &#xa;
            </root>
            &#xa;
        </mxGraphModel>
        &#xa;
    </diagram>
    <diagram id="KPnSuaktJsFTC25U-Bks" name="Desk-Board">
        <mxGraphModel dx="882" dy="807" grid="1" gridSize="10" guides="1" tooltips="1" connect="1" arrows="1" fold="1" page="1" pageScale="1" pageWidth="827" pageHeight="1169" math="0" shadow="0">
            <root>
                <mxCell id="Lt9owkrwTqRVSHe4yg-P-0"/>
                <mxCell id="Lt9owkrwTqRVSHe4yg-P-1" parent="Lt9owkrwTqRVSHe4yg-P-0"/>
                <mxCell id="V9i8k2c28cOFJ90JNcDL-0" value="" style="rounded=0;whiteSpace=wrap;html=1;strokeColor=#000000;fontColor=#000000;" parent="Lt9owkrwTqRVSHe4yg-P-1" vertex="1">
                    <mxGeometry x="710" y="140" width="80" height="70" as="geometry"/>
                </mxCell>
                <mxCell id="w0Bt0TISamom6T9LYgAJ-1" value="" style="shape=delay;whiteSpace=wrap;html=1;strokeColor=#007FFF;rotation=-180;strokeWidth=2;" parent="Lt9owkrwTqRVSHe4yg-P-1" vertex="1">
                    <mxGeometry x="590" y="280" width="60" height="20" as="geometry"/>
                </mxCell>
                <mxCell id="nCqQsOX3zLofDWjSaYS7-0" value="&lt;span style=&quot;font-size: 15px&quot;&gt;Nur einsehbar wenn User eingeloggt ist&lt;/span&gt;" style="text;html=1;strokeColor=none;fillColor=none;align=center;verticalAlign=middle;whiteSpace=wrap;rounded=0;" parent="Lt9owkrwTqRVSHe4yg-P-1" vertex="1">
                    <mxGeometry x="118" y="130" width="273" height="20" as="geometry"/>
                </mxCell>
                <mxCell id="Xdk4-sShPSncOMdFy2Bx-0" value="app.com/desk" style="strokeWidth=1;shadow=0;dashed=0;align=center;html=1;shape=mxgraph.mockup.containers.window;align=left;verticalAlign=top;spacingLeft=8;strokeColor2=#008cff;strokeColor3=#c4c4c4;fontColor=#666666;mainText=;fontSize=17;labelBackgroundColor=none;" parent="Lt9owkrwTqRVSHe4yg-P-1" vertex="1">
                    <mxGeometry x="110" y="240" width="560" height="400" as="geometry"/>
                </mxCell>
                <mxCell id="Xdk4-sShPSncOMdFy2Bx-3" value="&lt;font color=&quot;#000000&quot;&gt;&lt;b&gt;Your Desks&lt;/b&gt;&lt;/font&gt;" style="text;html=1;strokeColor=none;fillColor=none;align=center;verticalAlign=middle;whiteSpace=wrap;rounded=0;fontColor=#CCCCCC;" parent="Lt9owkrwTqRVSHe4yg-P-1" vertex="1">
                    <mxGeometry x="214" y="330" width="76" height="20" as="geometry"/>
                </mxCell>
                <mxCell id="Xdk4-sShPSncOMdFy2Bx-4" value="" style="html=1;shadow=0;dashed=0;shape=mxgraph.bootstrap.rrect;rSize=5;strokeColor=#DFDFDF;html=1;whiteSpace=wrap;fillColor=#FFFFFF;fontColor=#000000;align=left;verticalAlign=top;spacing=20;fontSize=14;" parent="Lt9owkrwTqRVSHe4yg-P-1" vertex="1">
                    <mxGeometry x="214" y="360" width="120" height="70" as="geometry"/>
                </mxCell>
                <mxCell id="Xdk4-sShPSncOMdFy2Bx-10" value="&amp;lt;color of choice&amp;gt;" style="text;html=1;strokeColor=none;fillColor=none;align=center;verticalAlign=middle;whiteSpace=wrap;rounded=0;fontColor=#CCCCCC;" parent="Lt9owkrwTqRVSHe4yg-P-1" vertex="1">
                    <mxGeometry x="224" y="360" width="100" height="20" as="geometry"/>
                </mxCell>
                <mxCell id="Xdk4-sShPSncOMdFy2Bx-12" value="" style="html=1;shadow=0;dashed=0;shape=mxgraph.bootstrap.rrect;rSize=5;strokeColor=#DFDFDF;html=1;whiteSpace=wrap;fillColor=#FFFFFF;fontColor=#000000;align=left;verticalAlign=top;spacing=20;fontSize=14;" parent="Lt9owkrwTqRVSHe4yg-P-1" vertex="1">
                    <mxGeometry x="354" y="360" width="120" height="70" as="geometry"/>
                </mxCell>
                <mxCell id="Xdk4-sShPSncOMdFy2Bx-13" value="&amp;lt;color of choice&amp;gt;" style="text;html=1;strokeColor=none;fillColor=none;align=center;verticalAlign=middle;whiteSpace=wrap;rounded=0;fontColor=#CCCCCC;" parent="Lt9owkrwTqRVSHe4yg-P-1" vertex="1">
                    <mxGeometry x="364" y="360" width="100" height="20" as="geometry"/>
                </mxCell>
                <mxCell id="Xdk4-sShPSncOMdFy2Bx-14" value="&lt;font color=&quot;#000000&quot;&gt;&amp;lt;deskname&amp;gt;&lt;/font&gt;" style="text;html=1;strokeColor=none;fillColor=none;align=center;verticalAlign=middle;whiteSpace=wrap;rounded=0;fontColor=#CCCCCC;" parent="Lt9owkrwTqRVSHe4yg-P-1" vertex="1">
                    <mxGeometry x="239" y="385" width="70" height="20" as="geometry"/>
                </mxCell>
                <mxCell id="Xdk4-sShPSncOMdFy2Bx-15" value="&lt;font color=&quot;#000000&quot;&gt;&amp;lt;deskname&amp;gt;&lt;/font&gt;" style="text;html=1;strokeColor=none;fillColor=none;align=center;verticalAlign=middle;whiteSpace=wrap;rounded=0;fontColor=#CCCCCC;" parent="Lt9owkrwTqRVSHe4yg-P-1" vertex="1">
                    <mxGeometry x="379" y="385" width="70" height="20" as="geometry"/>
                </mxCell>
                <mxCell id="BTbLCix9vvvcW8jFDfap-17" style="edgeStyle=orthogonalEdgeStyle;rounded=0;orthogonalLoop=1;jettySize=auto;html=1;entryX=0;entryY=0.25;entryDx=0;entryDy=0;fontSize=15;" parent="Lt9owkrwTqRVSHe4yg-P-1" source="Xdk4-sShPSncOMdFy2Bx-16" target="BTbLCix9vvvcW8jFDfap-16" edge="1">
                    <mxGeometry relative="1" as="geometry">
                        <Array as="points">
                            <mxPoint x="318" y="300"/>
                            <mxPoint x="40" y="300"/>
                            <mxPoint x="40" y="850"/>
                        </Array>
                    </mxGeometry>
                </mxCell>
                <mxCell id="Xdk4-sShPSncOMdFy2Bx-16" value="&lt;font style=&quot;font-size: 10px&quot;&gt;New Desk&lt;/font&gt;" style="html=1;shadow=0;dashed=0;shape=mxgraph.bootstrap.rrect;rSize=5;strokeColor=none;strokeWidth=1;fontColor=#FFFFFF;whiteSpace=wrap;align=left;verticalAlign=middle;spacingLeft=0;fontStyle=1;fontSize=14;spacing=5;fillColor=#007FFF;" parent="Lt9owkrwTqRVSHe4yg-P-1" vertex="1">
                    <mxGeometry x="290" y="330" width="56" height="20" as="geometry"/>
                </mxCell>
                <mxCell id="SydaGfQbe2F2zkt9feeO-1" style="edgeStyle=orthogonalEdgeStyle;rounded=0;orthogonalLoop=1;jettySize=auto;html=1;entryX=1;entryY=0.5;entryDx=0;entryDy=0;fontSize=15;" parent="Lt9owkrwTqRVSHe4yg-P-1" source="BTbLCix9vvvcW8jFDfap-1" target="SydaGfQbe2F2zkt9feeO-0" edge="1">
                    <mxGeometry relative="1" as="geometry">
                        <Array as="points">
                            <mxPoint x="710" y="395"/>
                            <mxPoint x="710" y="725"/>
                        </Array>
                    </mxGeometry>
                </mxCell>
                <mxCell id="BTbLCix9vvvcW8jFDfap-1" value="" style="html=1;shadow=0;dashed=0;shape=mxgraph.bootstrap.rrect;rSize=5;strokeColor=#DFDFDF;html=1;whiteSpace=wrap;fillColor=#FFFFFF;fontColor=#000000;align=left;verticalAlign=top;spacing=20;fontSize=14;" parent="Lt9owkrwTqRVSHe4yg-P-1" vertex="1">
                    <mxGeometry x="494" y="360" width="120" height="70" as="geometry"/>
                </mxCell>
                <mxCell id="BTbLCix9vvvcW8jFDfap-2" value="&amp;lt;color of choice&amp;gt;" style="text;html=1;strokeColor=none;fillColor=none;align=center;verticalAlign=middle;whiteSpace=wrap;rounded=0;fontColor=#CCCCCC;" parent="Lt9owkrwTqRVSHe4yg-P-1" vertex="1">
                    <mxGeometry x="504" y="360" width="100" height="20" as="geometry"/>
                </mxCell>
                <mxCell id="BTbLCix9vvvcW8jFDfap-3" value="&lt;font color=&quot;#000000&quot;&gt;&amp;lt;deskname&amp;gt;&lt;/font&gt;" style="text;html=1;strokeColor=none;fillColor=none;align=center;verticalAlign=middle;whiteSpace=wrap;rounded=0;fontColor=#CCCCCC;" parent="Lt9owkrwTqRVSHe4yg-P-1" vertex="1">
                    <mxGeometry x="519" y="385" width="70" height="20" as="geometry"/>
                </mxCell>
                <mxCell id="BTbLCix9vvvcW8jFDfap-6" value="&lt;font color=&quot;#000000&quot;&gt;&lt;b&gt;Shared Desks&lt;/b&gt;&lt;/font&gt;" style="text;html=1;strokeColor=none;fillColor=none;align=center;verticalAlign=middle;whiteSpace=wrap;rounded=0;fontColor=#CCCCCC;" parent="Lt9owkrwTqRVSHe4yg-P-1" vertex="1">
                    <mxGeometry x="214" y="460" width="86" height="20" as="geometry"/>
                </mxCell>
                <mxCell id="BTbLCix9vvvcW8jFDfap-7" value="" style="html=1;shadow=0;dashed=0;shape=mxgraph.bootstrap.rrect;rSize=5;strokeColor=#DFDFDF;html=1;whiteSpace=wrap;fillColor=#FFFFFF;fontColor=#000000;align=left;verticalAlign=top;spacing=20;fontSize=14;" parent="Lt9owkrwTqRVSHe4yg-P-1" vertex="1">
                    <mxGeometry x="214" y="490" width="120" height="70" as="geometry"/>
                </mxCell>
                <mxCell id="BTbLCix9vvvcW8jFDfap-8" value="&amp;lt;color of choice&amp;gt;" style="text;html=1;strokeColor=none;fillColor=none;align=center;verticalAlign=middle;whiteSpace=wrap;rounded=0;fontColor=#CCCCCC;" parent="Lt9owkrwTqRVSHe4yg-P-1" vertex="1">
                    <mxGeometry x="224" y="490" width="100" height="20" as="geometry"/>
                </mxCell>
                <mxCell id="BTbLCix9vvvcW8jFDfap-9" value="&lt;font color=&quot;#000000&quot;&gt;&amp;lt;deskname&amp;gt;&lt;/font&gt;" style="text;html=1;strokeColor=none;fillColor=none;align=center;verticalAlign=middle;whiteSpace=wrap;rounded=0;fontColor=#CCCCCC;" parent="Lt9owkrwTqRVSHe4yg-P-1" vertex="1">
                    <mxGeometry x="239" y="515" width="70" height="20" as="geometry"/>
                </mxCell>
                <mxCell id="BTbLCix9vvvcW8jFDfap-12" value="&lt;span style=&quot;font-size: 15px&quot;&gt;Wenn Your Desks leer : Info / Icon + Button&lt;/span&gt;" style="text;html=1;strokeColor=none;fillColor=none;align=center;verticalAlign=middle;whiteSpace=wrap;rounded=0;" parent="Lt9owkrwTqRVSHe4yg-P-1" vertex="1">
                    <mxGeometry x="89" y="660" width="290" height="20" as="geometry"/>
                </mxCell>
                <mxCell id="BTbLCix9vvvcW8jFDfap-13" value="&lt;span style=&quot;font-size: 15px&quot;&gt;Wenn Shared Desks leer : Info + Icon&lt;/span&gt;" style="text;html=1;strokeColor=none;fillColor=none;align=center;verticalAlign=middle;whiteSpace=wrap;rounded=0;" parent="Lt9owkrwTqRVSHe4yg-P-1" vertex="1">
                    <mxGeometry x="440" y="660" width="260" height="20" as="geometry"/>
                </mxCell>
                <mxCell id="BTbLCix9vvvcW8jFDfap-16" value="" style="rounded=1;whiteSpace=wrap;html=1;strokeWidth=1;fontSize=15;" parent="Lt9owkrwTqRVSHe4yg-P-1" vertex="1">
                    <mxGeometry x="119" y="760" width="321" height="360" as="geometry"/>
                </mxCell>
                <mxCell id="BTbLCix9vvvcW8jFDfap-0" value="&lt;h1 style=&quot;font-size: 15px&quot;&gt;&lt;font color=&quot;#000000&quot; face=&quot;Tahoma&quot;&gt;TaskApp&lt;/font&gt;&lt;/h1&gt;" style="text;html=1;strokeColor=none;fillColor=none;align=center;verticalAlign=middle;whiteSpace=wrap;rounded=0;fontColor=#CCCCCC;fontStyle=0;fontSize=15;" parent="Lt9owkrwTqRVSHe4yg-P-1" vertex="1">
                    <mxGeometry x="364" y="270" width="100" height="40" as="geometry"/>
                </mxCell>
                <mxCell id="BTbLCix9vvvcW8jFDfap-23" value="" style="shape=delay;whiteSpace=wrap;html=1;strokeColor=#000000;strokeWidth=1;fontSize=15;rotation=-180;" parent="Lt9owkrwTqRVSHe4yg-P-1" vertex="1">
                    <mxGeometry x="590" y="281.25" width="60" height="17.5" as="geometry"/>
                </mxCell>
                <mxCell id="w0Bt0TISamom6T9LYgAJ-2" value="&lt;font color=&quot;#000000&quot; style=&quot;font-size: 8px;&quot;&gt;&amp;lt;username&amp;gt;&lt;/font&gt;" style="text;html=1;strokeColor=none;fillColor=none;align=center;verticalAlign=middle;whiteSpace=wrap;rounded=0;fontColor=#CCCCCC;fontSize=8;" parent="Lt9owkrwTqRVSHe4yg-P-1" vertex="1">
                    <mxGeometry x="580" y="280" width="70" height="20" as="geometry"/>
                </mxCell>
                <mxCell id="V9i8k2c28cOFJ90JNcDL-1" style="edgeStyle=orthogonalEdgeStyle;rounded=0;orthogonalLoop=1;jettySize=auto;html=1;entryX=0.5;entryY=1;entryDx=0;entryDy=0;fontColor=#000000;" parent="Lt9owkrwTqRVSHe4yg-P-1" source="Xdk4-sShPSncOMdFy2Bx-17" target="V9i8k2c28cOFJ90JNcDL-2" edge="1">
                    <mxGeometry relative="1" as="geometry"/>
                </mxCell>
                <mxCell id="Xdk4-sShPSncOMdFy2Bx-17" value="" style="html=1;verticalLabelPosition=bottom;align=center;labelBackgroundColor=#ffffff;verticalAlign=top;strokeWidth=2;strokeColor=#0080F0;shadow=0;dashed=0;shape=mxgraph.ios7.icons.user;fontColor=#CCCCCC;" parent="Lt9owkrwTqRVSHe4yg-P-1" vertex="1">
                    <mxGeometry x="640" y="280" width="20" height="20" as="geometry"/>
                </mxCell>
                <mxCell id="BTbLCix9vvvcW8jFDfap-24" value="" style="html=1;shadow=0;dashed=0;shape=mxgraph.bootstrap.rrect;rSize=5;fillColor=none;strokeColor=#999999;align=left;spacing=15;fontSize=14;fontColor=#6C767D;" parent="Lt9owkrwTqRVSHe4yg-P-1" vertex="1">
                    <mxGeometry x="160" y="880" width="242.25" height="30" as="geometry"/>
                </mxCell>
                <mxCell id="BTbLCix9vvvcW8jFDfap-26" value="New Desk" style="text;html=1;strokeColor=none;fillColor=none;align=center;verticalAlign=middle;whiteSpace=wrap;rounded=0;fontSize=15;" parent="Lt9owkrwTqRVSHe4yg-P-1" vertex="1">
                    <mxGeometry x="231.5" y="790" width="96" height="20" as="geometry"/>
                </mxCell>
                <mxCell id="BTbLCix9vvvcW8jFDfap-27" value="&amp;lt;modal&amp;gt;" style="text;html=1;strokeColor=none;fillColor=none;align=center;verticalAlign=middle;whiteSpace=wrap;rounded=0;fontColor=#CCCCCC;" parent="Lt9owkrwTqRVSHe4yg-P-1" vertex="1">
                    <mxGeometry x="229.5" y="770" width="100" height="20" as="geometry"/>
                </mxCell>
                <mxCell id="BTbLCix9vvvcW8jFDfap-29" value="" style="verticalLabelPosition=bottom;verticalAlign=top;html=1;shadow=0;dashed=0;strokeWidth=1;strokeColor=none;shape=rect;fillColor=#33b5e5;fontSize=15;" parent="Lt9owkrwTqRVSHe4yg-P-1" vertex="1">
                    <mxGeometry x="164" y="955" width="50" height="50" as="geometry"/>
                </mxCell>
                <mxCell id="BTbLCix9vvvcW8jFDfap-30" value="" style="verticalLabelPosition=bottom;verticalAlign=top;html=1;shadow=0;dashed=0;strokeWidth=1;strokeColor=none;shape=rect;fillColor=#ff8800;fontSize=15;" parent="Lt9owkrwTqRVSHe4yg-P-1" vertex="1">
                    <mxGeometry x="224" y="955" width="50" height="50" as="geometry"/>
                </mxCell>
                <mxCell id="BTbLCix9vvvcW8jFDfap-31" value="" style="verticalLabelPosition=bottom;verticalAlign=top;html=1;shadow=0;dashed=0;strokeWidth=1;strokeColor=none;shape=rect;fillColor=#aa66cc;fontSize=15;" parent="Lt9owkrwTqRVSHe4yg-P-1" vertex="1">
                    <mxGeometry x="284" y="955" width="50" height="50" as="geometry"/>
                </mxCell>
                <mxCell id="BTbLCix9vvvcW8jFDfap-32" value="" style="verticalLabelPosition=bottom;verticalAlign=top;html=1;shadow=0;dashed=0;strokeWidth=1;strokeColor=none;shape=rect;fillColor=#99cc00;fontSize=15;" parent="Lt9owkrwTqRVSHe4yg-P-1" vertex="1">
                    <mxGeometry x="346" y="955" width="50" height="50" as="geometry"/>
                </mxCell>
                <mxCell id="BTbLCix9vvvcW8jFDfap-33" value="Desk Color" style="text;html=1;strokeColor=none;fillColor=none;align=center;verticalAlign=middle;whiteSpace=wrap;rounded=0;fontSize=15;" parent="Lt9owkrwTqRVSHe4yg-P-1" vertex="1">
                    <mxGeometry x="160" y="930" width="86" height="20" as="geometry"/>
                </mxCell>
                <mxCell id="BTbLCix9vvvcW8jFDfap-34" value="Desk Name" style="text;html=1;strokeColor=none;fillColor=none;align=center;verticalAlign=middle;whiteSpace=wrap;rounded=0;fontSize=15;" parent="Lt9owkrwTqRVSHe4yg-P-1" vertex="1">
                    <mxGeometry x="160" y="850" width="86" height="20" as="geometry"/>
                </mxCell>
                <mxCell id="SydaGfQbe2F2zkt9feeO-2" style="edgeStyle=orthogonalEdgeStyle;rounded=0;orthogonalLoop=1;jettySize=auto;html=1;entryX=0.5;entryY=1;entryDx=0;entryDy=0;fontSize=15;" parent="Lt9owkrwTqRVSHe4yg-P-1" source="BTbLCix9vvvcW8jFDfap-35" target="SydaGfQbe2F2zkt9feeO-0" edge="1">
                    <mxGeometry relative="1" as="geometry"/>
                </mxCell>
                <mxCell id="BTbLCix9vvvcW8jFDfap-35" value="Create new desk" style="html=1;shadow=0;dashed=0;shape=mxgraph.bootstrap.rrect;rSize=5;strokeColor=none;strokeWidth=1;fillColor=#343A40;fontColor=#ffffff;whiteSpace=wrap;align=center;verticalAlign=middle;spacingLeft=0;fontStyle=0;fontSize=16;spacing=5;" parent="Lt9owkrwTqRVSHe4yg-P-1" vertex="1">
                    <mxGeometry x="164.5" y="1040" width="230" height="40" as="geometry"/>
                </mxCell>
                <mxCell id="SydaGfQbe2F2zkt9feeO-0" value="Deskbereich" style="rounded=0;whiteSpace=wrap;html=1;strokeColor=#007FFF;strokeWidth=2;fontSize=15;" parent="Lt9owkrwTqRVSHe4yg-P-1" vertex="1">
                    <mxGeometry x="404" y="710" width="100" height="30" as="geometry"/>
                </mxCell>
                <mxCell id="pzWRmjFwNHY2AQ5_BAcS-0" value="&lt;h1 style=&quot;font-size: 15px&quot;&gt;&lt;font color=&quot;#000000&quot; face=&quot;Tahoma&quot;&gt;/desk&lt;/font&gt;&lt;/h1&gt;" style="text;html=1;strokeColor=none;fillColor=none;align=center;verticalAlign=middle;whiteSpace=wrap;rounded=0;fontColor=#CCCCCC;fontStyle=0;fontSize=15;" parent="Lt9owkrwTqRVSHe4yg-P-1" vertex="1">
                    <mxGeometry x="119" y="80" width="61" height="40" as="geometry"/>
                </mxCell>
                <mxCell id="pzWRmjFwNHY2AQ5_BAcS-1" value="&lt;span style=&quot;font-size: 15px&quot;&gt;Dashboard / Deskauswahlt&lt;/span&gt;" style="text;html=1;strokeColor=none;fillColor=none;align=center;verticalAlign=middle;whiteSpace=wrap;rounded=0;" parent="Lt9owkrwTqRVSHe4yg-P-1" vertex="1">
                    <mxGeometry x="200" y="90" width="191" height="20" as="geometry"/>
                </mxCell>
                <mxCell id="V9i8k2c28cOFJ90JNcDL-9" style="edgeStyle=orthogonalEdgeStyle;rounded=0;orthogonalLoop=1;jettySize=auto;html=1;fontColor=#000000;" parent="Lt9owkrwTqRVSHe4yg-P-1" source="V9i8k2c28cOFJ90JNcDL-2" edge="1">
                    <mxGeometry relative="1" as="geometry">
                        <mxPoint x="574" y="183" as="targetPoint"/>
                        <Array as="points">
                            <mxPoint x="574" y="200"/>
                        </Array>
                    </mxGeometry>
                </mxCell>
                <mxCell id="V9i8k2c28cOFJ90JNcDL-2" value="Logout" style="text;html=1;strokeColor=none;fillColor=none;align=center;verticalAlign=middle;whiteSpace=wrap;rounded=0;fontColor=#000000;" parent="Lt9owkrwTqRVSHe4yg-P-1" vertex="1">
                    <mxGeometry x="729" y="190" width="40" height="20" as="geometry"/>
                </mxCell>
                <mxCell id="V9i8k2c28cOFJ90JNcDL-7" style="edgeStyle=orthogonalEdgeStyle;rounded=0;orthogonalLoop=1;jettySize=auto;html=1;fontColor=#000000;entryX=0.5;entryY=1;entryDx=0;entryDy=0;" parent="Lt9owkrwTqRVSHe4yg-P-1" source="V9i8k2c28cOFJ90JNcDL-3" target="V9i8k2c28cOFJ90JNcDL-8" edge="1">
                    <mxGeometry relative="1" as="geometry">
                        <mxPoint x="640" y="175" as="targetPoint"/>
                    </mxGeometry>
                </mxCell>
                <mxCell id="V9i8k2c28cOFJ90JNcDL-3" value="Profile" style="text;html=1;strokeColor=none;fillColor=none;align=center;verticalAlign=middle;whiteSpace=wrap;rounded=0;fontColor=#000000;" parent="Lt9owkrwTqRVSHe4yg-P-1" vertex="1">
                    <mxGeometry x="729" y="165" width="40" height="20" as="geometry"/>
                </mxCell>
                <mxCell id="V9i8k2c28cOFJ90JNcDL-5" value="&amp;lt;dropdown&amp;gt;" style="text;html=1;strokeColor=none;fillColor=none;align=center;verticalAlign=middle;whiteSpace=wrap;rounded=0;fontColor=#CCCCCC;" parent="Lt9owkrwTqRVSHe4yg-P-1" vertex="1">
                    <mxGeometry x="699" y="140" width="100" height="20" as="geometry"/>
                </mxCell>
                <mxCell id="V9i8k2c28cOFJ90JNcDL-8" value="Profil-Modal" style="rounded=0;whiteSpace=wrap;html=1;strokeColor=#007FFF;strokeWidth=2;fontSize=15;" parent="Lt9owkrwTqRVSHe4yg-P-1" vertex="1">
                    <mxGeometry x="600" y="90" width="100" height="30" as="geometry"/>
                </mxCell>
                <mxCell id="V9i8k2c28cOFJ90JNcDL-10" value="session wird gelÃ¶scht und redirect auf /login" style="text;html=1;strokeColor=none;fillColor=none;align=center;verticalAlign=middle;whiteSpace=wrap;rounded=0;" parent="Lt9owkrwTqRVSHe4yg-P-1" vertex="1">
                    <mxGeometry x="520" y="150" width="104" height="20" as="geometry"/>
                </mxCell>
                <mxCell id="jGnWCGTmyiSnE5u5ZYdF-0" value="" style="rounded=1;whiteSpace=wrap;html=1;fontColor=#000000;" parent="Lt9owkrwTqRVSHe4yg-P-1" vertex="1">
                    <mxGeometry x="510" y="780" width="280" height="300" as="geometry"/>
                </mxCell>
                <mxCell id="jGnWCGTmyiSnE5u5ZYdF-1" value="" style="outlineConnect=0;fontColor=#232F3E;gradientColor=none;fillColor=#D05C17;strokeColor=none;dashed=0;verticalLabelPosition=bottom;verticalAlign=top;align=center;html=1;fontSize=12;fontStyle=0;aspect=fixed;pointerEvents=1;shape=mxgraph.aws4.container_registry_image;rounded=0;shadow=0;" parent="Lt9owkrwTqRVSHe4yg-P-1" vertex="1">
                    <mxGeometry x="626" y="850" width="50" height="50" as="geometry"/>
                </mxCell>
                <mxCell id="jGnWCGTmyiSnE5u5ZYdF-2" value="" style="html=1;shadow=0;dashed=0;shape=mxgraph.bootstrap.rrect;rSize=5;strokeColor=#CED4DA;html=1;whiteSpace=wrap;fillColor=#FFFFFF;fontColor=#7D868C;align=left;spacing=15;fontSize=14;rounded=0;" parent="Lt9owkrwTqRVSHe4yg-P-1" vertex="1">
                    <mxGeometry x="580" y="925" width="140" height="17.5" as="geometry"/>
                </mxCell>
                <mxCell id="jGnWCGTmyiSnE5u5ZYdF-3" value="Name" style="text;html=1;strokeColor=none;fillColor=none;align=center;verticalAlign=middle;whiteSpace=wrap;rounded=0;shadow=0;fontColor=#000000;" parent="jGnWCGTmyiSnE5u5ZYdF-2" vertex="1">
                    <mxGeometry y="-2.5" width="82.3529411764706" height="20" as="geometry"/>
                </mxCell>
                <mxCell id="jGnWCGTmyiSnE5u5ZYdF-4" value="&lt;span style=&quot;font-size: 10px&quot;&gt;Save&lt;/span&gt;" style="html=1;shadow=0;dashed=0;shape=mxgraph.bootstrap.rrect;rSize=5;strokeWidth=1;fillColor=none;whiteSpace=wrap;align=center;verticalAlign=middle;spacingLeft=0;fontStyle=0;fontSize=16;spacing=5;rounded=0;strokeColor=#007FFF;fontColor=#007FFF;" parent="Lt9owkrwTqRVSHe4yg-P-1" vertex="1">
                    <mxGeometry x="628" y="975" width="45" height="20" as="geometry"/>
                </mxCell>
                <mxCell id="jGnWCGTmyiSnE5u5ZYdF-5" value="&amp;lt;modal&amp;gt;" style="text;html=1;strokeColor=none;fillColor=none;align=center;verticalAlign=middle;whiteSpace=wrap;rounded=0;fontColor=#CCCCCC;" parent="Lt9owkrwTqRVSHe4yg-P-1" vertex="1">
                    <mxGeometry x="601" y="790" width="100" height="20" as="geometry"/>
                </mxCell>
                <mxCell id="jGnWCGTmyiSnE5u5ZYdF-6" value="Profilbereich" style="text;html=1;strokeColor=none;fillColor=none;align=center;verticalAlign=middle;whiteSpace=wrap;rounded=0;fontColor=#000000;" parent="Lt9owkrwTqRVSHe4yg-P-1" vertex="1">
                    <mxGeometry x="615" y="810" width="71" height="20" as="geometry"/>
                </mxCell>
            </root>
        </mxGraphModel>
    </diagram>
    <diagram id="2kpld70-rslGBF2VBWix" name="Deskbereich">
        &#xa;
        <mxGraphModel dx="1426" dy="852" grid="1" gridSize="10" guides="1" tooltips="1" connect="1" arrows="1" fold="1" page="1" pageScale="1" pageWidth="827" pageHeight="1169" math="0" shadow="0">
            &#xa;
            <root>
                &#xa;
                <mxCell id="VMjgmDCHNLsbqXEKD5MG-0"/>
                &#xa;
                <mxCell id="VMjgmDCHNLsbqXEKD5MG-1" parent="VMjgmDCHNLsbqXEKD5MG-0"/>
                &#xa;
                <mxCell id="LA86AaD7fAEUm5-0_B2D-0" value="app.com/desk/&amp;lt;deskname&amp;gt;" style="strokeWidth=1;shadow=0;dashed=0;align=center;html=1;shape=mxgraph.mockup.containers.window;align=left;verticalAlign=top;spacingLeft=8;strokeColor2=#008cff;strokeColor3=#c4c4c4;fontColor=#666666;mainText=;fontSize=17;labelBackgroundColor=none;" parent="VMjgmDCHNLsbqXEKD5MG-1" vertex="1">
                    &#xa;
                    <mxGeometry x="80" y="80" width="640" height="440" as="geometry"/>
                    &#xa;
                </mxCell>
                &#xa;
                <mxCell id="2IGm1Iit4arLs1xVs_Dk-1" value="" style="rounded=0;whiteSpace=wrap;html=1;shadow=1;strokeColor=none;" parent="VMjgmDCHNLsbqXEKD5MG-1" vertex="1">
                    &#xa;
                    <mxGeometry x="80" y="140" width="100" height="380" as="geometry"/>
                    &#xa;
                </mxCell>
                &#xa;
                <mxCell id="f_Vq0bhS0QjgeuroMzVz-0" value="&lt;span style=&quot;font-size: 15px&quot;&gt;Bestimmter Desk ausgewÃ¤hlt : Deskbereich&lt;/span&gt;" style="text;html=1;strokeColor=none;fillColor=none;align=center;verticalAlign=middle;whiteSpace=wrap;rounded=0;" parent="VMjgmDCHNLsbqXEKD5MG-1" vertex="1">
                    &#xa;
                    <mxGeometry x="250" y="10" width="300" height="20" as="geometry"/>
                    &#xa;
                </mxCell>
                &#xa;
                <mxCell id="2IGm1Iit4arLs1xVs_Dk-0" value="" style="rounded=0;whiteSpace=wrap;html=1;shadow=1;strokeColor=none;" parent="VMjgmDCHNLsbqXEKD5MG-1" vertex="1">
                    &#xa;
                    <mxGeometry x="80" y="110" width="640" height="30" as="geometry"/>
                    &#xa;
                </mxCell>
                &#xa;
                <mxCell id="KT7XbFAjkTWQUSitGDi4-6" value="" style="line;strokeWidth=1;html=1;shadow=0;strokeColor=#E6E6E6;rotation=-90;" parent="VMjgmDCHNLsbqXEKD5MG-1" vertex="1">
                    &#xa;
                    <mxGeometry x="170" y="120" width="20" height="10" as="geometry"/>
                    &#xa;
                </mxCell>
                &#xa;
                <mxCell id="KT7XbFAjkTWQUSitGDi4-7" value="&lt;span style=&quot;font-size: 10px&quot;&gt;&amp;lt;deskname&amp;gt;&lt;/span&gt;" style="html=1;shadow=0;dashed=0;shape=mxgraph.bootstrap.rrect;rSize=5;strokeColor=#6C767D;strokeWidth=1;fillColor=none;fontColor=#6C767D;whiteSpace=wrap;align=center;verticalAlign=middle;spacingLeft=0;fontStyle=0;fontSize=16;spacing=5;" parent="VMjgmDCHNLsbqXEKD5MG-1" vertex="1">
                    &#xa;
                    <mxGeometry x="190" y="117.5" width="70" height="15" as="geometry"/>
                    &#xa;
                </mxCell>
                &#xa;
                <mxCell id="KT7XbFAjkTWQUSitGDi4-12" value="" style="html=1;dashed=0;whitespace=wrap;fillColor=#2875E2;strokeColor=#ffffff;points=[[0.005,0.63,0],[0.1,0.2,0],[0.9,0.2,0],[0.5,0,0],[0.995,0.63,0],[0.72,0.99,0],[0.5,1,0],[0.28,0.99,0]];shape=mxgraph.kubernetes.icon;prIcon=user;shadow=0;" parent="VMjgmDCHNLsbqXEKD5MG-1" vertex="1">
                    &#xa;
                    <mxGeometry x="320" y="116" width="20" height="18" as="geometry"/>
                    &#xa;
                </mxCell>
                &#xa;
                <mxCell id="KT7XbFAjkTWQUSitGDi4-14" value="" style="html=1;dashed=0;whitespace=wrap;fillColor=#2875E2;strokeColor=#ffffff;points=[[0.005,0.63,0],[0.1,0.2,0],[0.9,0.2,0],[0.5,0,0],[0.995,0.63,0],[0.72,0.99,0],[0.5,1,0],[0.28,0.99,0]];shape=mxgraph.kubernetes.icon;prIcon=user;shadow=0;" parent="VMjgmDCHNLsbqXEKD5MG-1" vertex="1">
                    &#xa;
                    <mxGeometry x="340" y="116" width="20" height="18" as="geometry"/>
                    &#xa;
                </mxCell>
                &#xa;
                <mxCell id="KT7XbFAjkTWQUSitGDi4-15" value="" style="html=1;dashed=0;whitespace=wrap;fillColor=#2875E2;strokeColor=#ffffff;points=[[0.005,0.63,0],[0.1,0.2,0],[0.9,0.2,0],[0.5,0,0],[0.995,0.63,0],[0.72,0.99,0],[0.5,1,0],[0.28,0.99,0]];shape=mxgraph.kubernetes.icon;prIcon=user;shadow=0;" parent="VMjgmDCHNLsbqXEKD5MG-1" vertex="1">
                    &#xa;
                    <mxGeometry x="300" y="116" width="20" height="18" as="geometry"/>
                    &#xa;
                </mxCell>
                &#xa;
                <mxCell id="KT7XbFAjkTWQUSitGDi4-18" value="&lt;font style=&quot;font-size: 9px&quot;&gt;Invite +&lt;/font&gt;" style="rounded=1;whiteSpace=wrap;html=1;shadow=0;strokeColor=#E6E6E6;strokeWidth=1;fillColor=#007FFF;fontColor=#FFFFFF;" parent="VMjgmDCHNLsbqXEKD5MG-1" vertex="1">
                    &#xa;
                    <mxGeometry x="370" y="115" width="40" height="20" as="geometry"/>
                    &#xa;
                </mxCell>
                &#xa;
                <mxCell id="KT7XbFAjkTWQUSitGDi4-19" value="&lt;font size=&quot;1&quot;&gt;&amp;nbsp; &amp;nbsp; &amp;nbsp; &amp;nbsp;Deskboard&lt;/font&gt;" style="rounded=1;strokeColor=none;html=1;fontColor=#596780;align=left;fontSize=12;spacingLeft=10;shadow=0;fillColor=#FFFFFF;" parent="VMjgmDCHNLsbqXEKD5MG-1" vertex="1">
                    &#xa;
                    <mxGeometry x="85" y="114.25" width="90" height="21.5" as="geometry"/>
                    &#xa;
                </mxCell>
                &#xa;
                <mxCell id="KT7XbFAjkTWQUSitGDi4-20" value="" style="shape=triangle;direction=south;fillColor=#596780;strokeColor=none;html=1;rotation=90;" parent="KT7XbFAjkTWQUSitGDi4-19" vertex="1">
                    &#xa;
                    <mxGeometry x="1" y="0.5" width="12" height="6" relative="1" as="geometry">
                        &#xa;
                        <mxPoint x="-82" y="-3" as="offset"/>
                        &#xa;
                    </mxGeometry>
                    &#xa;
                </mxCell>
                &#xa;
                <mxCell id="KT7XbFAjkTWQUSitGDi4-30" value="" style="fillColor=#36B37E;strokeColor=none;rounded=1;arcSize=50;shadow=0;fontColor=#FFFFFF;" parent="VMjgmDCHNLsbqXEKD5MG-1" vertex="1">
                    &#xa;
                    <mxGeometry x="110" y="460" width="40" height="16" as="geometry"/>
                    &#xa;
                </mxCell>
                &#xa;
                <mxCell id="KT7XbFAjkTWQUSitGDi4-31" value="" style="shape=ellipse;strokeColor=none;fillColor=#ffffff" parent="KT7XbFAjkTWQUSitGDi4-30" vertex="1">
                    &#xa;
                    <mxGeometry x="1" y="0.5" width="12" height="12" relative="1" as="geometry">
                        &#xa;
                        <mxPoint x="-14" y="-6" as="offset"/>
                        &#xa;
                    </mxGeometry>
                    &#xa;
                </mxCell>
                &#xa;
                <mxCell id="KT7XbFAjkTWQUSitGDi4-32" value="" style="html=1;shadow=0;dashed=0;shape=mxgraph.atlassian.check;strokeColor=#ffffff" parent="KT7XbFAjkTWQUSitGDi4-30" vertex="1">
                    &#xa;
                    <mxGeometry y="0.5" width="6" height="5" relative="1" as="geometry">
                        &#xa;
                        <mxPoint x="4" y="-3" as="offset"/>
                        &#xa;
                    </mxGeometry>
                    &#xa;
                </mxCell>
                &#xa;
                <mxCell id="KT7XbFAjkTWQUSitGDi4-34" value="" style="rounded=1;whiteSpace=wrap;html=1;shadow=0;strokeColor=#E6E6E6;strokeWidth=1;fillColor=#007FFF;fontColor=#FFFFFF;" parent="VMjgmDCHNLsbqXEKD5MG-1" vertex="1">
                    &#xa;
                    <mxGeometry x="105" y="490" width="50" height="20" as="geometry"/>
                    &#xa;
                </mxCell>
                &#xa;
                <mxCell id="nlSDMnl_IiuiSltGgQJL-16" style="edgeStyle=orthogonalEdgeStyle;rounded=0;orthogonalLoop=1;jettySize=auto;html=1;strokeColor=#000000;fontColor=#000000;" parent="VMjgmDCHNLsbqXEKD5MG-1" source="KT7XbFAjkTWQUSitGDi4-33" edge="1">
                    &#xa;
                    <mxGeometry relative="1" as="geometry">
                        &#xa;
                        <mxPoint x="143.625" y="680" as="targetPoint"/>
                        &#xa;
                    </mxGeometry>
                    &#xa;
                </mxCell>
                &#xa;
                <mxCell id="KT7XbFAjkTWQUSitGDi4-33" value="" style="pointerEvents=1;shadow=0;dashed=0;html=1;strokeColor=none;labelPosition=center;verticalLabelPosition=bottom;verticalAlign=top;outlineConnect=0;align=center;shape=mxgraph.office.concepts.settings_office_365;fontColor=#FFFFFF;fillColor=#FFFFFF;" parent="VMjgmDCHNLsbqXEKD5MG-1" vertex="1">
                    &#xa;
                    <mxGeometry x="137.25" y="494.5" width="12.75" height="11" as="geometry"/>
                    &#xa;
                </mxCell>
                &#xa;
                <mxCell id="KT7XbFAjkTWQUSitGDi4-35" value="&lt;font style=&quot;font-size: 8px&quot;&gt;Settings&lt;/font&gt;" style="text;html=1;strokeColor=none;fillColor=none;align=center;verticalAlign=middle;whiteSpace=wrap;rounded=0;shadow=0;fontColor=#FFFFFF;" parent="VMjgmDCHNLsbqXEKD5MG-1" vertex="1">
                    &#xa;
                    <mxGeometry x="100" y="490" width="40" height="13.5" as="geometry"/>
                    &#xa;
                </mxCell>
                &#xa;
                <mxCell id="KT7XbFAjkTWQUSitGDi4-36" value="" style="shape=rect;fillColor=#F6F6F6;strokeColor=none;shadow=0;fontColor=#FFFFFF;" parent="VMjgmDCHNLsbqXEKD5MG-1" vertex="1">
                    &#xa;
                    <mxGeometry x="90" y="200" width="80" height="20" as="geometry"/>
                    &#xa;
                </mxCell>
                &#xa;
                <mxCell id="KT7XbFAjkTWQUSitGDi4-37" value="" style="html=1;strokeWidth=1;shadow=0;dashed=0;shape=mxgraph.ios7ui.marginRect;rx=3;ry=3;rectMargin=5;fillColor=#E4E4E4;strokeColor=none;" parent="KT7XbFAjkTWQUSitGDi4-36" vertex="1">
                    &#xa;
                    <mxGeometry width="80" height="20" as="geometry"/>
                    &#xa;
                </mxCell>
                &#xa;
                <mxCell id="KT7XbFAjkTWQUSitGDi4-38" value="Search" style="shape=mxgraph.ios7.icons.looking_glass;strokeColor=#878789;fillColor=none;fontColor=#878789;labelPosition=right;verticalLabelPosition=middle;align=left;verticalAlign=middle;fontSize=6;fontStyle=0;spacingTop=2;" parent="KT7XbFAjkTWQUSitGDi4-36" vertex="1">
                    &#xa;
                    <mxGeometry x="0.5" y="0.5" width="6" height="6" relative="1" as="geometry">
                        &#xa;
                        <mxPoint x="-17" y="-3" as="offset"/>
                        &#xa;
                    </mxGeometry>
                    &#xa;
                </mxCell>
                &#xa;
                <mxCell id="KT7XbFAjkTWQUSitGDi4-39" value="" style="html=1;shadow=0;dashed=0;shape=mxgraph.bootstrap.rrect;rSize=5;strokeColor=#505050;strokeWidth=1;fillColor=#ffffff;fontColor=#777777;whiteSpace=wrap;align=left;verticalAlign=middle;fontStyle=0;fontSize=18;spacing=20;" parent="VMjgmDCHNLsbqXEKD5MG-1" vertex="1">
                    &#xa;
                    <mxGeometry x="110" y="230" width="40" height="10" as="geometry"/>
                    &#xa;
                </mxCell>
                &#xa;
                <mxCell id="KT7XbFAjkTWQUSitGDi4-40" value="" style="shape=triangle;direction=south;fillColor=#495057;strokeColor=none;perimeter=none;" parent="KT7XbFAjkTWQUSitGDi4-39" vertex="1">
                    &#xa;
                    <mxGeometry x="1" y="0.5" width="10" height="5" relative="1" as="geometry">
                        &#xa;
                        <mxPoint x="-17" y="-2.5" as="offset"/>
                        &#xa;
                    </mxGeometry>
                    &#xa;
                </mxCell>
                &#xa;
                <mxCell id="KT7XbFAjkTWQUSitGDi4-42" value="" style="html=1;shadow=0;dashed=0;shape=mxgraph.bootstrap.rrect;rSize=5;strokeColor=#505050;strokeWidth=1;fillColor=#ffffff;fontColor=#777777;whiteSpace=wrap;align=left;verticalAlign=middle;fontStyle=0;fontSize=18;spacing=20;" parent="VMjgmDCHNLsbqXEKD5MG-1" vertex="1">
                    &#xa;
                    <mxGeometry x="110" y="250" width="40" height="10" as="geometry"/>
                    &#xa;
                </mxCell>
                &#xa;
                <mxCell id="KT7XbFAjkTWQUSitGDi4-43" value="" style="shape=triangle;direction=south;fillColor=#495057;strokeColor=none;perimeter=none;" parent="KT7XbFAjkTWQUSitGDi4-42" vertex="1">
                    &#xa;
                    <mxGeometry x="1" y="0.5" width="10" height="5" relative="1" as="geometry">
                        &#xa;
                        <mxPoint x="-17" y="-2.5" as="offset"/>
                        &#xa;
                    </mxGeometry>
                    &#xa;
                </mxCell>
                &#xa;
                <mxCell id="KT7XbFAjkTWQUSitGDi4-44" value="&lt;font size=&quot;1&quot;&gt;Sort&lt;/font&gt;" style="rounded=1;whiteSpace=wrap;html=1;shadow=0;strokeColor=#E6E6E6;strokeWidth=1;fillColor=#007FFF;fontColor=#FFFFFF;" parent="VMjgmDCHNLsbqXEKD5MG-1" vertex="1">
                    &#xa;
                    <mxGeometry x="115" y="270" width="30" height="20" as="geometry"/>
                    &#xa;
                </mxCell>
                &#xa;
                <mxCell id="KT7XbFAjkTWQUSitGDi4-45" value="" style="rounded=0;whiteSpace=wrap;html=1;shadow=0;strokeColor=#E6E6E6;strokeWidth=1;fillColor=#FFFFFF;fontColor=#FFFFFF;" parent="VMjgmDCHNLsbqXEKD5MG-1" vertex="1">
                    &#xa;
                    <mxGeometry x="200" y="160" width="120" height="150" as="geometry"/>
                    &#xa;
                </mxCell>
                &#xa;
                <mxCell id="KT7XbFAjkTWQUSitGDi4-46" value="" style="rounded=0;whiteSpace=wrap;html=1;shadow=0;strokeColor=#E6E6E6;strokeWidth=1;fillColor=#FFFFFF;fontColor=#FFFFFF;" parent="VMjgmDCHNLsbqXEKD5MG-1" vertex="1">
                    &#xa;
                    <mxGeometry x="340" y="160" width="120" height="150" as="geometry"/>
                    &#xa;
                </mxCell>
                &#xa;
                <mxCell id="KT7XbFAjkTWQUSitGDi4-47" value="" style="rounded=0;whiteSpace=wrap;html=1;shadow=0;strokeColor=#E6E6E6;strokeWidth=1;fillColor=#FFFFFF;fontColor=#FFFFFF;" parent="VMjgmDCHNLsbqXEKD5MG-1" vertex="1">
                    &#xa;
                    <mxGeometry x="480" y="160" width="120" height="150" as="geometry"/>
                    &#xa;
                </mxCell>
                &#xa;
                <mxCell id="KT7XbFAjkTWQUSitGDi4-48" value="&amp;lt;listname&amp;gt;" style="text;html=1;strokeColor=none;fillColor=none;align=center;verticalAlign=middle;whiteSpace=wrap;rounded=0;shadow=0;" parent="VMjgmDCHNLsbqXEKD5MG-1" vertex="1">
                    &#xa;
                    <mxGeometry x="200" y="160" width="70" height="20" as="geometry"/>
                    &#xa;
                </mxCell>
                &#xa;
                <mxCell id="KT7XbFAjkTWQUSitGDi4-49" value="&amp;lt;listname&amp;gt;" style="text;html=1;strokeColor=none;fillColor=none;align=center;verticalAlign=middle;whiteSpace=wrap;rounded=0;shadow=0;" parent="VMjgmDCHNLsbqXEKD5MG-1" vertex="1">
                    &#xa;
                    <mxGeometry x="340" y="160" width="70" height="20" as="geometry"/>
                    &#xa;
                </mxCell>
                &#xa;
                <mxCell id="KT7XbFAjkTWQUSitGDi4-50" value="&amp;lt;listname&amp;gt;" style="text;html=1;strokeColor=none;fillColor=none;align=center;verticalAlign=middle;whiteSpace=wrap;rounded=0;shadow=0;" parent="VMjgmDCHNLsbqXEKD5MG-1" vertex="1">
                    &#xa;
                    <mxGeometry x="480" y="160" width="70" height="20" as="geometry"/>
                    &#xa;
                </mxCell>
                &#xa;
                <mxCell id="KT7XbFAjkTWQUSitGDi4-53" value="." style="text;html=1;strokeColor=none;fillColor=none;align=center;verticalAlign=middle;whiteSpace=wrap;rounded=0;shadow=0;fontColor=#000000;" parent="VMjgmDCHNLsbqXEKD5MG-1" vertex="1">
                    &#xa;
                    <mxGeometry x="290" y="150" width="40" height="20" as="geometry"/>
                    &#xa;
                </mxCell>
                &#xa;
                <mxCell id="KT7XbFAjkTWQUSitGDi4-54" value="." style="text;html=1;strokeColor=none;fillColor=none;align=center;verticalAlign=middle;whiteSpace=wrap;rounded=0;shadow=0;fontColor=#000000;" parent="VMjgmDCHNLsbqXEKD5MG-1" vertex="1">
                    &#xa;
                    <mxGeometry x="290" y="160" width="40" height="10" as="geometry"/>
                    &#xa;
                </mxCell>
                &#xa;
                <mxCell id="KT7XbFAjkTWQUSitGDi4-55" value="." style="text;html=1;strokeColor=none;fillColor=none;align=center;verticalAlign=middle;whiteSpace=wrap;rounded=0;shadow=0;fontColor=#000000;" parent="VMjgmDCHNLsbqXEKD5MG-1" vertex="1">
                    &#xa;
                    <mxGeometry x="290" y="165" width="40" height="10" as="geometry"/>
                    &#xa;
                </mxCell>
                &#xa;
                <mxCell id="KT7XbFAjkTWQUSitGDi4-57" value="&amp;lt;taskname&amp;gt;" style="rounded=1;whiteSpace=wrap;html=1;shadow=0;strokeColor=#E6E6E6;strokeWidth=1;fontColor=#000000;fillColor=#E6E6E6;" parent="VMjgmDCHNLsbqXEKD5MG-1" vertex="1">
                    &#xa;
                    <mxGeometry x="205" y="190" width="110" height="20" as="geometry"/>
                    &#xa;
                </mxCell>
                &#xa;
                <mxCell id="KT7XbFAjkTWQUSitGDi4-58" value="&amp;lt;taskname&amp;gt;" style="rounded=1;whiteSpace=wrap;html=1;shadow=0;strokeColor=#E6E6E6;strokeWidth=1;fontColor=#000000;fillColor=#E6E6E6;" parent="VMjgmDCHNLsbqXEKD5MG-1" vertex="1">
                    &#xa;
                    <mxGeometry x="205" y="220" width="110" height="20" as="geometry"/>
                    &#xa;
                </mxCell>
                &#xa;
                <mxCell id="KT7XbFAjkTWQUSitGDi4-59" value="&amp;lt;taskname&amp;gt;" style="rounded=1;whiteSpace=wrap;html=1;shadow=0;strokeColor=#E6E6E6;strokeWidth=1;fontColor=#000000;fillColor=#E6E6E6;" parent="VMjgmDCHNLsbqXEKD5MG-1" vertex="1">
                    &#xa;
                    <mxGeometry x="205" y="250" width="110" height="20" as="geometry"/>
                    &#xa;
                </mxCell>
                &#xa;
                <mxCell id="KT7XbFAjkTWQUSitGDi4-60" value="&lt;font style=&quot;font-size: 9px&quot;&gt;Add Task&lt;/font&gt;" style="rounded=1;whiteSpace=wrap;html=1;shadow=0;strokeColor=#E6E6E6;strokeWidth=1;fillColor=#007FFF;fontColor=#FFFFFF;" parent="VMjgmDCHNLsbqXEKD5MG-1" vertex="1">
                    &#xa;
                    <mxGeometry x="275" y="280" width="40" height="20" as="geometry"/>
                    &#xa;
                </mxCell>
                &#xa;
                <mxCell id="KT7XbFAjkTWQUSitGDi4-61" value="&lt;font style=&quot;font-size: 7px&quot;&gt;Row/Col Switch&lt;/font&gt;" style="text;html=1;strokeColor=none;fillColor=none;align=center;verticalAlign=middle;whiteSpace=wrap;rounded=0;shadow=0;fontColor=#000000;" parent="VMjgmDCHNLsbqXEKD5MG-1" vertex="1">
                    &#xa;
                    <mxGeometry x="100" y="440" width="60" height="20" as="geometry"/>
                    &#xa;
                </mxCell>
                &#xa;
                <mxCell id="KT7XbFAjkTWQUSitGDi4-62" value="" style="rounded=0;whiteSpace=wrap;html=1;shadow=0;strokeColor=#E6E6E6;strokeWidth=1;fillColor=#FFFFFF;fontColor=#FFFFFF;" parent="VMjgmDCHNLsbqXEKD5MG-1" vertex="1">
                    &#xa;
                    <mxGeometry x="625" y="160" width="95" height="150" as="geometry"/>
                    &#xa;
                </mxCell>
                &#xa;
                <mxCell id="KT7XbFAjkTWQUSitGDi4-63" value="&amp;lt;listn..." style="text;html=1;strokeColor=none;fillColor=none;align=center;verticalAlign=middle;whiteSpace=wrap;rounded=0;shadow=0;" parent="VMjgmDCHNLsbqXEKD5MG-1" vertex="1">
                    &#xa;
                    <mxGeometry x="670" y="160" width="60" height="20" as="geometry"/>
                    &#xa;
                </mxCell>
                &#xa;
                <mxCell id="nlSDMnl_IiuiSltGgQJL-7" value="" style="html=1;shadow=0;dashed=0;shape=mxgraph.bootstrap.rrect;rSize=5;strokeColor=#CED4DA;html=1;whiteSpace=wrap;fillColor=#FFFFFF;fontColor=#7D868C;align=left;spacing=15;fontSize=14;rounded=0;" parent="VMjgmDCHNLsbqXEKD5MG-1" vertex="1">
                    &#xa;
                    <mxGeometry x="90" y="170" width="85" height="17.5" as="geometry"/>
                    &#xa;
                </mxCell>
                &#xa;
                <mxCell id="nlSDMnl_IiuiSltGgQJL-10" value="" style="html=1;shadow=0;dashed=0;shape=mxgraph.bootstrap.rightButton;strokeColor=#6C757D;gradientColor=inherit;fontColor=inherit;fillColor=#ffffff;rSize=5;perimeter=none;whiteSpace=wrap;resizeHeight=1;fontSize=14;align=left;spacing=15;" parent="nlSDMnl_IiuiSltGgQJL-7" vertex="1">
                    &#xa;
                    <mxGeometry x="1" width="24" height="15" relative="1" as="geometry">
                        &#xa;
                        <mxPoint x="-24" as="offset"/>
                        &#xa;
                    </mxGeometry>
                    &#xa;
                </mxCell>
                &#xa;
                <mxCell id="nlSDMnl_IiuiSltGgQJL-12" value="" style="html=1;verticalLabelPosition=bottom;labelBackgroundColor=#ffffff;verticalAlign=top;shadow=0;dashed=0;strokeWidth=2;shape=mxgraph.ios7.misc.add;strokeColor=#ffffff;rounded=0;fontColor=#000000;fillColor=#007FFF;" parent="nlSDMnl_IiuiSltGgQJL-7" vertex="1">
                    &#xa;
                    <mxGeometry x="65" y="1.5" width="12" height="12" as="geometry"/>
                    &#xa;
                </mxCell>
                &#xa;
                <mxCell id="nlSDMnl_IiuiSltGgQJL-13" value="Add List" style="text;html=1;strokeColor=none;fillColor=none;align=center;verticalAlign=middle;whiteSpace=wrap;rounded=0;shadow=0;fontColor=#000000;" parent="nlSDMnl_IiuiSltGgQJL-7" vertex="1">
                    &#xa;
                    <mxGeometry y="-2.5" width="50" height="20" as="geometry"/>
                    &#xa;
                </mxCell>
                &#xa;
                <mxCell id="nlSDMnl_IiuiSltGgQJL-15" value="" style="html=1;verticalLabelPosition=bottom;labelBackgroundColor=#ffffff;verticalAlign=top;shadow=0;dashed=0;strokeWidth=2;shape=mxgraph.ios7.misc.scroll_(horizontal);fillColor=#a0a0a0;rounded=0;fontColor=#000000;" parent="VMjgmDCHNLsbqXEKD5MG-1" vertex="1">
                    &#xa;
                    <mxGeometry x="190" y="505.5" width="460" height="6" as="geometry"/>
                    &#xa;
                </mxCell>
                &#xa;
                <mxCell id="nlSDMnl_IiuiSltGgQJL-17" value="" style="rounded=1;whiteSpace=wrap;html=1;shadow=0;strokeColor=#000000;strokeWidth=1;fontColor=#000000;fillColor=#FFFFFF;" parent="VMjgmDCHNLsbqXEKD5MG-1" vertex="1">
                    &#xa;
                    <mxGeometry x="83.63" y="680" width="306.37" height="270" as="geometry"/>
                    &#xa;
                </mxCell>
                &#xa;
                <mxCell id="nlSDMnl_IiuiSltGgQJL-18" value="&amp;lt;modal&amp;gt;" style="text;html=1;strokeColor=none;fillColor=none;align=center;verticalAlign=middle;whiteSpace=wrap;rounded=0;shadow=0;fontColor=#000000;" parent="VMjgmDCHNLsbqXEKD5MG-1" vertex="1">
                    &#xa;
                    <mxGeometry x="205" y="690" width="60" height="20" as="geometry"/>
                    &#xa;
                </mxCell>
                &#xa;
                <mxCell id="nlSDMnl_IiuiSltGgQJL-21" value="" style="rounded=1;whiteSpace=wrap;html=1;shadow=0;strokeWidth=1;fillColor=#FFFFFF;fontColor=#000000;strokeColor=#E6E6E6;" parent="VMjgmDCHNLsbqXEKD5MG-1" vertex="1">
                    &#xa;
                    <mxGeometry x="116.82" y="860" width="240" height="40" as="geometry"/>
                    &#xa;
                </mxCell>
                &#xa;
                <mxCell id="DhZfnfZuGiDZOT_r4C1X-2" style="edgeStyle=orthogonalEdgeStyle;rounded=0;orthogonalLoop=1;jettySize=auto;html=1;fontColor=#3333FF;" edge="1" parent="VMjgmDCHNLsbqXEKD5MG-1" source="nlSDMnl_IiuiSltGgQJL-19">
                    &#xa;
                    <mxGeometry relative="1" as="geometry">
                        &#xa;
                        <mxPoint x="480" y="880" as="targetPoint"/>
                        &#xa;
                    </mxGeometry>
                    &#xa;
                </mxCell>
                &#xa;
                <mxCell id="BBN8t5kiXy_rmwjEeFrT-1" style="edgeStyle=orthogonalEdgeStyle;rounded=0;orthogonalLoop=1;jettySize=auto;html=1;fontColor=#000000;entryX=0;entryY=0.5;entryDx=0;entryDy=0;" edge="1" parent="VMjgmDCHNLsbqXEKD5MG-1" source="nlSDMnl_IiuiSltGgQJL-19" target="BBN8t5kiXy_rmwjEeFrT-2">
                    &#xa;
                    <mxGeometry relative="1" as="geometry">
                        &#xa;
                        <mxPoint x="480" y="1000" as="targetPoint"/>
                        &#xa;
                        <Array as="points">
                            &#xa;
                            <mxPoint x="313" y="995"/>
                            &#xa;
                        </Array>
                        &#xa;
                    </mxGeometry>
                    &#xa;
                </mxCell>
                &#xa;
                <mxCell id="nlSDMnl_IiuiSltGgQJL-19" value="&lt;font style=&quot;font-size: 10px&quot;&gt;Delete&lt;/font&gt;" style="html=1;shadow=0;dashed=0;shape=mxgraph.bootstrap.rrect;rSize=5;strokeColor=#DB2843;strokeWidth=1;fillColor=none;fontColor=#DB2843;whiteSpace=wrap;align=center;verticalAlign=middle;spacingLeft=0;fontStyle=0;fontSize=16;spacing=5;rounded=0;" parent="VMjgmDCHNLsbqXEKD5MG-1" vertex="1">
                    &#xa;
                    <mxGeometry x="290" y="870" width="45" height="20" as="geometry"/>
                    &#xa;
                </mxCell>
                &#xa;
                <mxCell id="nlSDMnl_IiuiSltGgQJL-20" value="Delete Desk&amp;nbsp;" style="text;html=1;strokeColor=none;fillColor=none;align=center;verticalAlign=middle;whiteSpace=wrap;rounded=0;shadow=0;fontColor=#000000;" parent="VMjgmDCHNLsbqXEKD5MG-1" vertex="1">
                    &#xa;
                    <mxGeometry x="128.18" y="870" width="75" height="20" as="geometry"/>
                    &#xa;
                </mxCell>
                &#xa;
                <mxCell id="nlSDMnl_IiuiSltGgQJL-22" value="" style="rounded=1;whiteSpace=wrap;html=1;shadow=0;strokeWidth=1;fillColor=#FFFFFF;fontColor=#000000;strokeColor=#E6E6E6;" parent="VMjgmDCHNLsbqXEKD5MG-1" vertex="1">
                    &#xa;
                    <mxGeometry x="115" y="740" width="240" height="70" as="geometry"/>
                    &#xa;
                </mxCell>
                &#xa;
                <mxCell id="nlSDMnl_IiuiSltGgQJL-24" value="Rename Desk" style="text;html=1;strokeColor=none;fillColor=none;align=center;verticalAlign=middle;whiteSpace=wrap;rounded=0;shadow=0;fontColor=#000000;" parent="VMjgmDCHNLsbqXEKD5MG-1" vertex="1">
                    &#xa;
                    <mxGeometry x="123.18" y="750" width="86.82" height="20" as="geometry"/>
                    &#xa;
                </mxCell>
                &#xa;
                <mxCell id="nlSDMnl_IiuiSltGgQJL-25" value="" style="html=1;shadow=0;dashed=0;shape=mxgraph.bootstrap.rrect;rSize=5;strokeColor=#CED4DA;html=1;whiteSpace=wrap;fillColor=#FFFFFF;fontColor=#7D868C;align=left;spacing=15;fontSize=14;rounded=0;" parent="VMjgmDCHNLsbqXEKD5MG-1" vertex="1">
                    &#xa;
                    <mxGeometry x="128.18" y="780" width="91.82" height="17.5" as="geometry"/>
                    &#xa;
                </mxCell>
                &#xa;
                <mxCell id="nlSDMnl_IiuiSltGgQJL-28" value="NewName" style="text;html=1;strokeColor=none;fillColor=none;align=center;verticalAlign=middle;whiteSpace=wrap;rounded=0;shadow=0;fontColor=#000000;" parent="nlSDMnl_IiuiSltGgQJL-25" vertex="1">
                    &#xa;
                    <mxGeometry y="-2.5" width="54.01176470588236" height="20" as="geometry"/>
                    &#xa;
                </mxCell>
                &#xa;
                <mxCell id="nlSDMnl_IiuiSltGgQJL-29" value="&lt;span style=&quot;font-size: 10px&quot;&gt;Rename&lt;/span&gt;" style="html=1;shadow=0;dashed=0;shape=mxgraph.bootstrap.rrect;rSize=5;strokeWidth=1;fillColor=none;whiteSpace=wrap;align=center;verticalAlign=middle;spacingLeft=0;fontStyle=0;fontSize=16;spacing=5;rounded=0;strokeColor=#007FFF;fontColor=#007FFF;" parent="VMjgmDCHNLsbqXEKD5MG-1" vertex="1">
                    &#xa;
                    <mxGeometry x="290" y="778.75" width="45" height="20" as="geometry"/>
                    &#xa;
                </mxCell>
                &#xa;
                <mxCell id="DhZfnfZuGiDZOT_r4C1X-1" value="&lt;font style=&quot;font-size: 11px&quot;&gt;Desk-Board&lt;/font&gt;" style="rounded=0;whiteSpace=wrap;html=1;strokeColor=#007FFF;strokeWidth=2;fontSize=15;" vertex="1" parent="VMjgmDCHNLsbqXEKD5MG-1">
                    &#xa;
                    <mxGeometry x="140" y="1060" width="73" height="30" as="geometry"/>
                    &#xa;
                </mxCell>
                &#xa;
                <mxCell id="DhZfnfZuGiDZOT_r4C1X-0" style="edgeStyle=orthogonalEdgeStyle;rounded=0;orthogonalLoop=1;jettySize=auto;html=1;entryX=0;entryY=0.5;entryDx=0;entryDy=0;fontColor=#3333FF;" edge="1" parent="VMjgmDCHNLsbqXEKD5MG-1" source="KT7XbFAjkTWQUSitGDi4-20" target="DhZfnfZuGiDZOT_r4C1X-1">
                    &#xa;
                    <mxGeometry relative="1" as="geometry">
                        &#xa;
                        <mxPoint x="120" y="1090" as="targetPoint"/>
                        &#xa;
                        <Array as="points">
                            &#xa;
                            <mxPoint x="40" y="125"/>
                            &#xa;
                            <mxPoint x="40" y="1075"/>
                            &#xa;
                        </Array>
                        &#xa;
                    </mxGeometry>
                    &#xa;
                </mxCell>
                &#xa;
                <mxCell id="DhZfnfZuGiDZOT_r4C1X-3" value="Wenn man Admin ist muss die admin rolle zuerst weiter gegeben werden" style="text;html=1;strokeColor=none;fillColor=none;align=center;verticalAlign=middle;whiteSpace=wrap;rounded=0;" vertex="1" parent="VMjgmDCHNLsbqXEKD5MG-1">
                    &#xa;
                    <mxGeometry x="480" y="855" width="160" height="50" as="geometry"/>
                    &#xa;
                </mxCell>
                &#xa;
                <mxCell id="llgwdprggF8LeFIK4QC8-0" value="&lt;h1 style=&quot;font-size: 15px&quot;&gt;&lt;font color=&quot;#000000&quot; face=&quot;Tahoma&quot;&gt;/desk/&amp;lt;deskname&amp;gt;&lt;/font&gt;&lt;/h1&gt;" style="text;html=1;strokeColor=none;fillColor=none;align=center;verticalAlign=middle;whiteSpace=wrap;rounded=0;fontColor=#CCCCCC;fontStyle=0;fontSize=15;" vertex="1" parent="VMjgmDCHNLsbqXEKD5MG-1">
                    &#xa;
                    <mxGeometry x="80" width="160" height="40" as="geometry"/>
                    &#xa;
                </mxCell>
                &#xa;
                <mxCell id="llgwdprggF8LeFIK4QC8-2" value="&lt;span style=&quot;font-size: 15px&quot;&gt;Nur einsehbar wenn user eingeloggt ist&lt;/span&gt;" style="text;html=1;strokeColor=none;fillColor=none;align=center;verticalAlign=middle;whiteSpace=wrap;rounded=0;" vertex="1" parent="VMjgmDCHNLsbqXEKD5MG-1">
                    &#xa;
                    <mxGeometry x="80" y="40" width="270" height="20" as="geometry"/>
                    &#xa;
                </mxCell>
                &#xa;
                <mxCell id="BBN8t5kiXy_rmwjEeFrT-2" value="Wenn man normales Desk-Mitglied ist kann man den desk nur verlassen" style="text;html=1;strokeColor=none;fillColor=none;align=center;verticalAlign=middle;whiteSpace=wrap;rounded=0;" vertex="1" parent="VMjgmDCHNLsbqXEKD5MG-1">
                    &#xa;
                    <mxGeometry x="480" y="970" width="160" height="50" as="geometry"/>
                    &#xa;
                </mxCell>
                &#xa;
            </root>
            &#xa;
        </mxGraphModel>
        &#xa;
    </diagram>
</mxfile>